<svg width="536" height="91" viewBox="0 0 536 91" fill="none" xmlns="http://www.w3.org/2000/svg">
<path fill-rule="evenodd" clip-rule="evenodd" d="M13.3419 6.09194C13.3419 3.72415 15.2181 1.60561 18.3034 0.525573C20.1796 -0.139068 20.5965 -0.180608 22.5978 0.442493C24.8075 1.10713 26.2668 2.76873 35.6478 15.6461C39.9839 21.6279 43.6946 26.5296 43.8614 26.5296C44.3617 26.5296 44.2783 26.0311 42.694 18.6786C40.9429 10.6198 41.0262 9.04128 43.0692 6.83966C45.5291 4.26417 49.7402 4.43034 52.3251 7.21352C54.0346 8.9582 54.7017 11.4091 58.3707 28.0251C59.9967 35.5438 61.8729 43.1456 62.54 44.8903C67.4598 57.8923 64.9165 71.1021 55.6606 80.9055C49.5317 87.3858 41.1096 90.9997 31.8954 90.9997C20.388 91.0413 10.5901 86.098 4.04425 76.9592C1.83451 73.8853 0 69.7728 0 67.945C0 62.7525 5.33675 59.5124 10.0064 61.9217C11.5491 62.711 12.1328 63.4172 13.5086 65.9926C16.8024 72.1406 22.3059 76.253 28.6016 77.2085C31.4368 77.6654 32.3957 77.5823 37.9409 76.5023C38.5663 76.3777 41.0679 77.0423 44.1949 78.2054C47.0301 79.2439 49.4066 80.0332 49.4483 79.9916C49.49 79.9501 49.1565 77.4992 48.6978 74.5914L47.864 69.2328L49.1148 66.6988C53.0339 58.5985 51.6164 49.9997 45.3624 43.8103C40.9846 39.5317 36.8986 37.9531 30.6446 38.2439C26.9756 38.4101 26.0166 38.6178 23.5567 39.7809C20.0545 41.401 17.5946 43.3533 15.3431 46.3442C13.3002 49.0443 11.7992 49.8751 9.13084 49.8751C4.96151 49.8336 2.45991 47.2166 2.41821 42.8133C2.41821 40.4871 3.29377 38.9501 7.08787 34.7545C10.6318 30.8082 17.2194 26.9035 22.6812 25.4911C24.0154 25.1588 25.2245 24.7849 25.3496 24.7019C25.558 24.4526 23.0981 20.9633 17.9281 14.0676C13.6337 8.37664 13.3419 7.87816 13.3419 6.09194ZM121.07 81.42C122.61 82.54 124.29 83.1 126.11 83.1C127.79 83.1 129.4 82.54 130.94 81.42C132.48 80.3 133.25 78.69 133.25 76.59V48.87C133.25 39.07 130.94 31.65 126.32 26.61C121.7 21.57 115.47 19.05 107.63 19.05C104.27 19.05 100.7 19.82 96.92 21.36C93.14 22.9 90.06 24.86 87.68 27.24C87.68 24.86 86.91 23.11 85.37 21.99C83.97 20.73 82.36 20.1 80.54 20.1C78.72 20.1 77.04 20.73 75.5 21.99C74.1 23.11 73.4 24.86 73.4 27.24V76.59C73.4 78.69 74.1 80.3 75.5 81.42C77.04 82.54 78.72 83.1 80.54 83.1C82.36 83.1 83.97 82.54 85.37 81.42C86.91 80.3 87.68 78.69 87.68 76.59V49.92C87.68 45.44 88.94 41.38 91.46 37.74C94.12 33.96 98.32 32.07 104.06 32.07C108.54 32.07 112.11 33.54 114.77 36.48C117.57 39.42 118.97 43.97 118.97 50.13V76.59C118.97 78.69 119.67 80.3 121.07 81.42ZM153.694 74.07C159.574 80.09 167.764 83.1 178.264 83.1C182.464 83.1 186.594 82.61 190.654 81.63C194.854 80.65 198.774 78.83 202.414 76.17C203.394 75.33 204.024 74.49 204.304 73.65C204.584 72.81 204.724 71.97 204.724 71.13C204.724 69.31 204.094 67.77 202.834 66.51C201.574 65.11 200.174 64.41 198.634 64.41C197.514 64.41 196.604 64.69 195.904 65.25C193.664 66.93 191.004 68.19 187.924 69.03C184.984 69.87 181.904 70.29 178.684 70.29C174.344 70.29 170.424 69.24 166.924 67.14C163.564 64.9 161.324 61.82 160.204 57.9C159.784 56.36 160.274 55.59 161.674 55.59H198.214C200.734 55.59 202.764 54.82 204.304 53.28C205.984 51.74 206.824 49.43 206.824 46.35C206.824 38.65 204.094 32.21 198.634 27.03C193.174 21.71 185.894 19.05 176.794 19.05C167.414 19.05 159.714 21.92 153.694 27.66C147.814 33.4 144.874 40.75 144.874 49.71C144.874 59.93 147.814 68.05 153.694 74.07ZM191.704 43.41C191.704 44.25 191.284 44.67 190.444 44.67L162.094 44.46C160.974 44.46 160.344 44.25 160.204 43.83C160.204 43.41 160.274 42.92 160.414 42.36V42.15C161.114 38.93 163.074 36.34 166.294 34.38C169.654 32.42 173.154 31.44 176.794 31.44C180.994 31.44 184.494 32.63 187.294 35.01C190.234 37.39 191.704 40.19 191.704 43.41ZM233.696 76.59V49.92C233.696 44.6 234.956 40.4 237.476 37.32C240.136 34.24 243.496 32.7 247.556 32.7C249.096 32.7 250.356 32.84 251.336 33.12C252.456 33.4 253.506 33.54 254.486 33.54C256.726 33.54 258.406 32.84 259.526 31.44C260.786 29.9 261.416 28.22 261.416 26.4C261.416 24.86 260.996 23.46 260.156 22.2C259.316 20.94 258.056 20.1 256.376 19.68C254.696 19.26 253.016 19.05 251.336 19.05C247.836 19.05 244.476 19.89 241.256 21.57C238.176 23.25 235.656 25.42 233.696 28.08V27.24C233.696 24.86 232.926 23.11 231.386 21.99C229.986 20.73 228.376 20.1 226.556 20.1C224.736 20.1 223.056 20.73 221.516 21.99C220.116 23.11 219.416 24.86 219.416 27.24V76.59C219.416 78.69 220.116 80.3 221.516 81.42C223.056 82.54 224.736 83.1 226.556 83.1C228.376 83.1 229.986 82.54 231.386 81.42C232.926 80.3 233.696 78.69 233.696 76.59ZM280.34 81.42C284.54 82.54 288.67 83.1 292.73 83.1C297.35 83.1 301.62 82.4 305.54 81C309.6 79.6 312.89 77.5 315.41 74.7C317.93 71.76 319.19 68.05 319.19 63.57C319.19 59.23 318.28 55.8 316.46 53.28C314.64 50.76 312.33 48.94 309.53 47.82C306.73 46.56 303.79 45.65 300.71 45.09C297.77 44.53 295.11 44.11 292.73 43.83C287.69 43.13 284.54 42.29 283.28 41.31C282.16 40.19 281.6 38.93 281.6 37.53C281.6 35.57 282.58 34.17 284.54 33.33C286.64 32.35 289.16 31.86 292.1 31.86C294.62 31.86 297.21 32.21 299.87 32.91C302.67 33.47 305.19 34.38 307.43 35.64C308.27 36.06 309.18 36.27 310.16 36.27C311.98 36.27 313.52 35.57 314.78 34.17C316.04 32.77 316.67 31.16 316.67 29.34C316.67 27.66 315.9 26.19 314.36 24.93C312.4 23.25 309.39 21.85 305.33 20.73C301.41 19.61 297.21 19.05 292.73 19.05C285.03 19.05 278.87 20.87 274.25 24.51C269.77 28.15 267.53 33.05 267.53 39.21C267.53 42.99 268.44 46 270.26 48.24C272.08 50.48 274.32 52.16 276.98 53.28C279.64 54.4 282.3 55.17 284.96 55.59C287.76 56.01 290.14 56.36 292.1 56.64C296.86 57.2 300.22 58.04 302.18 59.16C304.14 60.28 305.12 61.96 305.12 64.2C305.12 66.44 304.07 68.05 301.97 69.03C300.01 70.01 297.63 70.5 294.83 70.5C291.89 70.5 288.74 70.08 285.38 69.24C282.16 68.26 279.29 67 276.77 65.46C275.79 64.9 274.81 64.62 273.83 64.62C272.01 64.62 270.33 65.32 268.79 66.72C267.39 68.12 266.69 69.73 266.69 71.55C266.69 73.37 267.53 75.05 269.21 76.59C272.43 78.83 276.14 80.44 280.34 81.42ZM336.418 74.07C342.298 80.09 350.488 83.1 360.988 83.1C365.188 83.1 369.318 82.61 373.378 81.63C377.578 80.65 381.498 78.83 385.138 76.17C386.118 75.33 386.748 74.49 387.028 73.65C387.308 72.81 387.448 71.97 387.448 71.13C387.448 69.31 386.818 67.77 385.558 66.51C384.298 65.11 382.898 64.41 381.358 64.41C380.238 64.41 379.328 64.69 378.628 65.25C376.388 66.93 373.728 68.19 370.648 69.03C367.708 69.87 364.628 70.29 361.408 70.29C357.068 70.29 353.148 69.24 349.648 67.14C346.288 64.9 344.048 61.82 342.928 57.9C342.508 56.36 342.998 55.59 344.398 55.59H380.938C383.458 55.59 385.488 54.82 387.028 53.28C388.708 51.74 389.548 49.43 389.548 46.35C389.548 38.65 386.818 32.21 381.358 27.03C375.898 21.71 368.618 19.05 359.518 19.05C350.138 19.05 342.438 21.92 336.418 27.66C330.538 33.4 327.598 40.75 327.598 49.71C327.598 59.93 330.538 68.05 336.418 74.07ZM374.428 43.41C374.428 44.25 374.008 44.67 373.168 44.67L344.818 44.46C343.698 44.46 343.068 44.25 342.928 43.83C342.928 43.41 342.998 42.92 343.138 42.36V42.15C343.838 38.93 345.798 36.34 349.018 34.38C352.378 32.42 355.878 31.44 359.518 31.44C363.718 31.44 367.218 32.63 370.018 35.01C372.958 37.39 374.428 40.19 374.428 43.41ZM449.81 81.42C451.35 82.54 453.03 83.1 454.85 83.1C456.53 83.1 458.14 82.54 459.68 81.42C461.22 80.3 461.99 78.69 461.99 76.59V48.87C461.99 39.07 459.68 31.65 455.06 26.61C450.44 21.57 444.21 19.05 436.37 19.05C433.01 19.05 429.44 19.82 425.66 21.36C421.88 22.9 418.8 24.86 416.42 27.24C416.42 24.86 415.65 23.11 414.11 21.99C412.71 20.73 411.1 20.1 409.28 20.1C407.46 20.1 405.78 20.73 404.24 21.99C402.84 23.11 402.14 24.86 402.14 27.24V76.59C402.14 78.69 402.84 80.3 404.24 81.42C405.78 82.54 407.46 83.1 409.28 83.1C411.1 83.1 412.71 82.54 414.11 81.42C415.65 80.3 416.42 78.69 416.42 76.59V49.92C416.42 45.44 417.68 41.38 420.2 37.74C422.86 33.96 427.06 32.07 432.8 32.07C437.28 32.07 440.85 33.54 443.51 36.48C446.31 39.42 447.71 43.97 447.71 50.13V76.59C447.71 78.69 448.41 80.3 449.81 81.42ZM482.434 74.07C488.314 80.09 496.504 83.1 507.004 83.1C511.204 83.1 515.334 82.61 519.394 81.63C523.594 80.65 527.514 78.83 531.154 76.17C532.134 75.33 532.764 74.49 533.044 73.65C533.324 72.81 533.464 71.97 533.464 71.13C533.464 69.31 532.834 67.77 531.574 66.51C530.314 65.11 528.914 64.41 527.374 64.41C526.254 64.41 525.344 64.69 524.644 65.25C522.404 66.93 519.744 68.19 516.664 69.03C513.724 69.87 510.644 70.29 507.424 70.29C503.084 70.29 499.164 69.24 495.664 67.14C492.304 64.9 490.064 61.82 488.944 57.9C488.524 56.36 489.014 55.59 490.414 55.59H526.954C529.474 55.59 531.504 54.82 533.044 53.28C534.724 51.74 535.564 49.43 535.564 46.35C535.564 38.65 532.834 32.21 527.374 27.03C521.914 21.71 514.634 19.05 505.534 19.05C496.154 19.05 488.454 21.92 482.434 27.66C476.554 33.4 473.614 40.75 473.614 49.71C473.614 59.93 476.554 68.05 482.434 74.07ZM520.444 43.41C520.444 44.25 520.024 44.67 519.184 44.67L490.834 44.46C489.714 44.46 489.084 44.25 488.944 43.83C488.944 43.41 489.014 42.92 489.154 42.36V42.15C489.854 38.93 491.814 36.34 495.034 34.38C498.394 32.42 501.894 31.44 505.534 31.44C509.734 31.44 513.234 32.63 516.034 35.01C518.974 37.39 520.444 40.19 520.444 43.41Z" fill="#1F9B14"/>
</svg>
